<?xml version="1.0" standalone="no"?>
<!DOCTYPE svg PUBLIC "-//W3C//DTD SVG 20010904//EN"
 "http://www.w3.org/TR/2001/REC-SVG-20010904/DTD/svg10.dtd">
<svg version="1.0" xmlns="http://www.w3.org/2000/svg"
 width="1200.000000pt" height="1543.000000pt" viewBox="0 0 1200.000000 1543.000000"
 preserveAspectRatio="xMidYMid meet">

<g transform="translate(0.000000,1543.000000) scale(0.100000,-0.100000)"
fill="#000000" stroke="none">
<path d="M6030 15374 c-191 -195 -644 -529 -1040 -766 -1262 -756 -2739 -1190
-4355 -1278 -104 -5 -273 -10 -375 -10 -102 0 -202 -3 -222 -6 -33 -6 -38 -10
-38 -34 0 -16 81 -203 181 -416 99 -213 219 -476 266 -583 542 -1241 863
-2423 982 -3621 41 -404 46 -533 46 -1105 -1 -598 -8 -740 -60 -1215 -155
-1385 -589 -2824 -1267 -4193 -75 -152 -132 -277 -126 -277 6 0 79 8 162 17
219 25 938 25 1226 0 712 -62 1356 -191 1989 -398 952 -312 1834 -798 2573
-1416 47 -40 91 -73 96 -73 6 0 52 37 104 81 184 161 532 410 838 601 395 246
938 519 1415 710 726 291 1522 496 2305 592 314 39 534 55 905 68 187 6 341
12 343 13 1 1 -30 62 -69 136 -94 176 -286 563 -378 764 -1074 2335 -1394
4625 -956 6820 235 1176 689 2326 1351 3422 48 78 74 132 74 151 0 29 -1 29
-62 36 -35 3 -189 15 -343 26 -336 24 -461 35 -705 61 -1947 212 -3523 840
-4659 1859 -65 59 -108 90 -123 90 -15 0 -43 -20 -78 -56z m440 -365 c798
-629 1813 -1101 2961 -1378 671 -162 1255 -246 2152 -310 148 -11 271 -22 273
-24 2 -2 -38 -75 -89 -163 -399 -680 -722 -1382 -957 -2084 -637 -1901 -694
-3885 -170 -5906 233 -896 562 -1759 1027 -2688 79 -158 142 -290 140 -292 -2
-2 -116 -9 -253 -14 -962 -38 -1829 -198 -2719 -500 -358 -122 -848 -326
-1163 -484 -538 -270 -1156 -664 -1507 -960 -44 -37 -85 -70 -91 -72 -6 -3
-72 43 -145 102 -1309 1051 -2944 1662 -4723 1764 -231 13 -648 13 -850 -1
-87 -5 -160 -8 -162 -6 -2 2 35 84 82 183 705 1465 1118 2893 1258 4344 37
378 41 491 41 1050 0 560 -5 676 -41 1050 -97 990 -319 1944 -679 2915 -162
438 -313 793 -585 1374 -77 165 -140 302 -140 305 0 3 71 6 158 6 426 0 1059
58 1565 145 1324 225 2539 701 3557 1393 247 168 482 350 638 495 l62 58 133
-114 c72 -62 175 -147 227 -188z"/>
<path d="M6035 15009 c-202 -205 -631 -528 -1007 -757 -978 -596 -2135 -988
-3358 -1137 -302 -36 -530 -53 -892 -66 -178 -6 -324 -12 -326 -14 -3 -2 52
-128 183 -415 363 -800 577 -1362 761 -2000 242 -835 377 -1633 425 -2508 15
-282 6 -1079 -15 -1337 -97 -1162 -332 -2200 -751 -3310 -152 -402 -367 -901
-525 -1215 -23 -45 -39 -84 -36 -87 2 -3 64 1 138 9 174 17 878 17 1078 0
1632 -141 3047 -709 4218 -1692 l133 -111 29 23 c16 13 68 57 117 99 268 230
652 494 1046 720 1222 700 2594 1083 4000 1116 141 3 257 7 257 8 0 2 -48 99
-108 216 -1148 2279 -1572 4544 -1256 6704 187 1274 635 2533 1319 3699 89
151 92 165 43 166 -9 0 -72 4 -140 10 -68 5 -215 17 -328 25 -2083 156 -3667
753 -4835 1823 -55 51 -102 92 -105 92 -3 0 -32 -27 -65 -61z m4 -1841 c18
-167 36 -318 38 -335 l6 -33 -83 0 -83 0 6 33 c2 17 20 168 38 335 19 166 36
302 39 302 3 0 20 -136 39 -302z m143 -589 l89 -167 -3 -115 -3 -115 -120 176
c-99 147 -123 177 -143 177 -20 0 -46 -31 -146 -168 l-121 -169 -3 107 -3 107
67 126 c37 70 78 146 92 170 l24 43 91 -3 90 -3 89 -166z m11 -379 c39 -58 74
-106 79 -108 4 -2 8 -24 8 -48 l0 -44 -280 0 -280 0 0 49 c0 45 6 57 78 154
42 57 105 144 140 191 l63 88 61 -89 c33 -48 92 -135 131 -193z m135 -295 l3
-45 -330 0 -331 0 0 43 c0 24 2 46 4 48 2 2 150 3 328 2 l323 -3 3 -45z m2
-155 c0 -33 -4 -60 -9 -60 -4 0 -41 -50 -81 -110 -40 -61 -78 -109 -84 -107
-6 2 -41 55 -78 118 -58 99 -69 114 -90 111 -12 -2 -24 -7 -26 -10 -1 -4 -19
-47 -40 -97 -50 -122 -58 -122 -153 -6 -41 49 -80 90 -86 90 -9 1 -13 21 -13
66 l0 65 330 0 330 0 0 -60z m-251 -345 c-4 -38 -10 -965 -13 -2060 -3 -1094
-9 -2669 -13 -3498 l-6 -1509 24 4 24 3 6 1215 c3 668 10 2256 14 3528 4 1272
10 2311 12 2308 4 -3 72 -6467 73 -6887 0 -75 -2 -87 -17 -85 -11 1 -35 -35
-79 -119 -35 -66 -67 -121 -71 -122 -4 -2 -31 39 -60 90 -46 82 -49 92 -32 95
18 3 19 17 13 580 -3 317 -16 1902 -29 3522 l-23 2945 45 113 46 113 47 -83
47 -83 -8 -70z m-320 118 l53 -63 -11 -2827 c-6 -1556 -13 -3151 -16 -3545 -5
-647 -4 -717 10 -720 12 -2 -3 -28 -57 -97 l-72 -95 -20 28 c-20 27 -21 38
-18 364 2 185 16 1764 32 3507 17 1744 30 3251 30 3350 0 98 4 175 8 170 5 -6
32 -38 61 -72z m596 -3616 c36 -3229 40 -3677 27 -3710 -8 -21 -18 -35 -22
-30 -21 21 -127 232 -118 235 7 3 -37 5244 -57 6583 l-6 410 63 97 c34 53 64
95 67 92 2 -2 23 -1657 46 -3677z m-1998 3576 c102 -80 285 -268 348 -358 l50
-70 -1 -305 c-1 -168 -7 -393 -13 -500 -17 -298 -35 -433 -101 -795 -15 -80
-23 -160 -23 -240 0 -105 3 -130 26 -198 15 -42 41 -104 57 -137 27 -54 33
-59 50 -50 25 13 25 11 -4 69 -30 58 -64 158 -75 217 -8 40 -7 44 11 44 11 0
39 17 63 38 38 34 204 126 212 118 2 -2 -1 -79 -7 -172 -5 -93 -10 -274 -10
-402 l0 -234 34 -61 c87 -156 278 -606 360 -848 56 -163 61 -235 21 -274 -39
-40 -167 -38 -260 4 -67 31 -204 122 -280 186 -27 23 -166 114 -308 201 -319
197 -298 185 -314 172 -19 -16 -16 -33 10 -47 12 -7 103 -99 201 -206 99 -108
192 -200 211 -209 42 -20 94 -20 123 0 22 15 22 15 22 -34 0 -26 -6 -57 -14
-67 -15 -21 1 -24 -281 60 -95 29 -151 65 -322 205 -168 138 -221 188 -302
285 l-68 80 -32 220 c-18 121 -34 227 -37 236 -3 11 -12 15 -29 11 -19 -3 -24
-9 -20 -26 5 -22 55 -343 55 -354 0 -3 -13 12 -30 34 -16 21 -30 48 -30 59 0
11 -12 73 -27 138 -25 108 -29 117 -50 117 -27 0 -28 -7 -8 -96 9 -36 14 -68
12 -70 -2 -2 -21 27 -42 64 -86 146 -170 199 -417 261 -177 44 -245 71 -284
112 -15 16 -26 30 -23 32 2 2 96 -6 209 -18 113 -13 208 -21 213 -18 4 2 7 13
7 23 0 23 -7 24 -215 45 -256 26 -232 19 -237 71 l-3 46 95 -6 c52 -4 114 -9
138 -13 40 -5 42 -4 42 20 0 29 -12 32 -175 43 -56 4 -103 12 -107 18 -4 6 -8
24 -8 40 l0 29 53 -7 c173 -21 157 -21 157 6 0 25 -3 26 -97 38 -103 13 -123
24 -123 67 0 22 3 23 80 23 79 0 80 0 80 25 0 25 -1 25 -80 25 l-80 0 0 30 0
31 75 -7 75 -7 0 25 c0 25 -3 26 -75 33 l-75 7 0 34 0 34 55 0 c52 0 55 1 55
25 0 24 -3 25 -60 25 -57 0 -60 1 -60 25 0 22 4 25 35 25 30 0 35 3 35 24 0
22 -5 25 -42 28 -35 2 -44 7 -46 25 -3 19 2 22 35 25 30 2 39 7 41 25 3 20 -2
22 -45 25 -41 3 -48 6 -51 26 -2 15 2 22 13 22 26 0 15 44 -12 48 -19 3 -24
16 -43 100 -39 178 -61 257 -85 304 l-24 47 26 21 c38 30 103 27 142 -6 43
-36 144 -173 310 -422 78 -117 170 -247 204 -290 34 -42 103 -148 155 -234 51
-87 95 -158 97 -158 13 0 35 14 35 23 0 6 -41 80 -91 166 l-92 155 6 110 c31
575 252 1059 587 1286 59 40 221 122 268 135 22 6 22 5 16 -52 -4 -32 -14 -81
-24 -109 -20 -57 -156 -298 -201 -356 -16 -20 -29 -41 -29 -47 0 -6 -14 -34
-31 -63 -55 -94 -136 -262 -153 -318 -9 -30 -16 -90 -16 -137 0 -46 -4 -83 -9
-83 -9 0 -6 -16 18 -85 5 -16 24 -73 41 -125 28 -82 70 -177 98 -219 7 -10 14
-11 30 -2 21 11 20 12 -18 87 -21 42 -46 96 -54 120 -17 51 -25 53 78 -25 46
-36 59 -42 67 -30 16 25 10 33 -65 91 -114 88 -129 112 -133 216 -3 72 -2 84
9 72 7 -9 49 -62 92 -118 43 -56 82 -102 86 -102 4 0 13 7 20 15 13 16 19 7
-158 237 -43 55 -44 57 -32 95 7 21 16 42 20 47 5 4 55 -48 111 -117 90 -108
106 -123 121 -113 10 6 18 15 18 19 0 5 -44 61 -98 125 -53 64 -103 125 -110
134 -11 14 -9 24 11 64 l24 47 93 -124 c51 -68 95 -126 97 -128 1 -2 12 4 22
13 19 18 18 21 -81 153 l-102 135 19 34 c10 19 21 34 25 34 4 0 40 -43 81 -95
40 -52 76 -95 80 -95 14 0 30 30 23 42 -4 7 -41 55 -82 107 l-75 94 19 35 18
34 26 -29 c14 -16 48 -54 75 -86 49 -56 51 -58 68 -39 17 18 14 22 -58 105
-41 47 -75 90 -75 96 0 6 8 24 19 42 l19 31 48 -71 c50 -72 63 -81 83 -58 8
11 1 27 -31 73 -22 32 -49 68 -59 79 -17 20 -17 21 3 53 l21 33 58 -57 c49
-49 60 -55 73 -44 9 7 16 16 16 20 0 5 -26 33 -57 63 -41 40 -61 53 -70 46 -6
-6 -2 15 10 45 12 31 24 56 27 56 3 0 37 -22 75 -50 67 -48 69 -49 83 -29 8
11 12 22 11 23 -39 32 -150 106 -159 106 -9 0 -11 10 -6 31 3 17 6 47 6 65 l0
34 81 0 c78 0 80 1 77 23 -3 20 -9 22 -85 25 l-83 3 0 29 c0 55 7 61 66 54 53
-7 54 -6 54 18 0 23 -5 26 -54 32 l-54 7 -6 97 c-4 53 -8 123 -11 155 l-5 59
40 -51 c85 -108 203 -278 232 -335 l30 -60 9 -310 c13 -454 2 -601 -57 -766
-53 -144 -76 -268 -89 -472 l-6 -98 25 0 c27 0 26 -5 41 205 9 112 38 244 78
355 57 156 62 210 59 620 -3 459 -6 488 -67 589 -80 133 -264 373 -280 367 -8
-3 -15 -2 -15 2 0 4 -3 18 -7 31 -8 30 0 26 104 -56z m5047 -19 c9 -3 16 -17
16 -30 0 -41 -38 -136 -67 -166 -26 -27 -29 -28 -141 -28 -112 0 -113 0 -110
-22 3 -21 9 -23 84 -28 l82 -5 -39 -44 c-33 -37 -39 -40 -39 -22 0 19 -5 21
-70 21 -68 0 -70 -1 -70 -25 0 -24 2 -25 66 -25 36 0 64 -3 62 -7 -1 -5 -20
-37 -40 -73 -20 -36 -55 -119 -78 -185 -22 -66 -55 -144 -73 -174 -41 -69
-160 -180 -278 -262 l-94 -64 68 -7 c152 -15 267 -71 267 -131 0 -76 -287
-318 -495 -417 -123 -59 -202 -40 -485 115 -206 113 -374 164 -594 181 -88 7
-88 7 -81 -15 6 -19 4 -21 -17 -17 -13 3 -68 10 -123 16 -55 6 -117 13 -137
16 -36 5 -38 4 -38 -20 0 -14 1 -26 3 -26 1 0 74 -9 162 -20 111 -14 161 -16
166 -9 3 6 11 -3 17 -21 l12 -32 -88 8 c-144 13 -157 12 -160 -13 -2 -13 1
-23 7 -23 22 0 217 -21 239 -26 31 -6 45 -44 25 -66 -73 -83 -295 47 -618 362
-123 121 -170 152 -278 186 -42 13 -59 23 -62 38 -3 12 -6 131 -7 266 l-3 245
150 0 150 0 100 47 c168 78 271 95 472 80 131 -10 178 -28 232 -86 l25 -26
-33 -34 -33 -34 -139 -7 -139 -8 0 -24 0 -25 100 4 c55 1 100 2 100 2 0 -6
-140 -91 -208 -127 l-84 -45 74 -16 c208 -46 448 -59 567 -31 131 31 275 119
536 325 239 190 395 285 684 419 235 109 398 157 455 135z m-3936 -422 c73
-11 135 -22 137 -24 2 -2 0 -122 -3 -268 l-7 -265 -65 -3 c-68 -3 -80 -11 -80
-52 0 -39 -65 -167 -127 -250 -77 -103 -312 -334 -466 -459 -71 -57 -130 -101
-132 -99 -2 2 1 23 6 48 5 25 15 92 22 150 l13 105 127 3 127 3 0 24 0 25
-125 0 c-69 0 -125 3 -125 8 0 4 3 17 6 30 6 21 10 22 140 22 l134 0 0 25 0
25 -120 0 c-66 0 -120 3 -120 6 0 3 10 19 21 36 l21 29 149 -7 149 -7 0 25 0
26 -127 7 -128 7 39 33 c35 29 42 31 80 24 22 -5 83 -8 134 -9 92 0 92 0 92
25 0 25 -1 25 -82 26 -116 1 -131 8 -76 39 37 21 60 26 158 30 105 5 115 7
119 25 4 24 19 35 49 35 23 0 28 15 13 38 -10 17 -130 2 -233 -29 -117 -34
-272 -137 -358 -237 l-41 -47 8 210 c5 116 8 320 8 455 l0 245 265 -7 c181 -4
307 -13 398 -26z m417 -3577 c8 -1276 18 -2487 21 -2692 l7 -372 -31 8 c-20 6
-34 5 -42 -2 -10 -10 -11 101 -6 513 3 289 9 1567 13 2840 4 1273 11 2250 15
2170 4 -80 14 -1189 23 -2465z m-268 1193 c-1 -40 -3 -10 -3 67 0 77 1 110 3
73 2 -37 2 -100 0 -140z m-25 -2568 l-17 -1795 -27 36 -28 36 43 2049 c26
1259 43 1937 44 1759 1 -159 -5 -1098 -15 -2085z m1548 2215 c156 -47 327 -97
380 -110 113 -29 428 -71 630 -84 80 -5 163 -16 186 -24 138 -50 413 -225 549
-349 87 -79 344 -407 498 -634 l136 -200 52 -205 51 -204 -6 -140 c-13 -292
-63 -604 -131 -813 -85 -265 -275 -545 -547 -808 -155 -149 -279 -241 -429
-319 -108 -55 -248 -102 -318 -106 -46 -3 -55 3 -181 111 -122 105 -173 132
-267 138 -72 5 -73 4 -73 -20 0 -23 7 -27 84 -48 104 -28 194 -76 224 -121 20
-29 23 -42 18 -89 -8 -86 -66 -191 -151 -276 -76 -76 -77 -76 -220 -109 -96
-22 -385 -108 -380 -113 2 -2 75 -23 162 -46 153 -41 161 -42 243 -33 148 16
191 -9 192 -115 1 -74 -6 -84 -96 -126 -45 -21 -109 -56 -141 -77 -69 -44 -62
-46 -205 57 -101 72 -157 103 -309 166 -98 41 -116 52 -133 82 -23 42 -19 111
8 141 22 24 156 108 272 170 65 35 82 48 80 64 -3 19 -9 20 -228 16 -236 -4
-296 3 -335 39 -11 10 -57 36 -102 59 l-83 41 0 111 c0 104 -1 110 -19 104
-18 -5 -19 4 -25 172 -3 98 -9 321 -12 496 l-6 317 178 -1 c99 -1 224 -4 279
-8 l100 -6 -110 -87 c-72 -57 -119 -87 -135 -88 -14 0 -80 7 -145 15 -158 20
-155 20 -155 -10 0 -17 6 -25 18 -25 9 -1 81 -9 160 -19 78 -9 142 -13 142 -8
0 4 4 5 10 2 5 -3 25 5 42 18 31 23 44 25 203 31 418 17 365 10 493 71 245
118 475 273 581 392 62 69 130 183 181 301 l37 86 64 13 c105 21 109 22 109
43 0 28 -11 30 -80 14 -34 -8 -65 -12 -67 -10 -3 3 2 37 11 77 9 39 16 73 14
74 -2 1 -13 5 -24 9 -19 6 -24 -2 -49 -71 -75 -215 -157 -291 -250 -234 -113
69 -270 303 -299 444 -27 131 -51 159 -153 170 -29 3 -66 13 -83 22 -60 31
-91 123 -52 158 30 27 132 50 224 51 105 1 101 4 235 -179 l95 -130 -4 -90
c-3 -84 -2 -90 17 -93 18 -2 25 15 63 149 83 296 121 354 276 425 70 32 86 43
86 61 0 18 -7 23 -47 28 -82 10 -131 26 -152 49 -28 30 -61 125 -61 177 0 38
-2 41 -22 36 -39 -10 -309 -46 -394 -53 -74 -6 -92 -3 -230 34 -314 86 -611
192 -704 252 -73 47 -215 206 -168 187 30 -11 387 -110 468 -129 72 -17 131
-21 383 -25 l298 -5 -16 38 c-34 81 -104 167 -183 222 -76 52 -151 89 -469
231 -433 192 -583 266 -583 290 0 4 24 25 53 45 48 35 56 37 107 33 30 -3 183
-44 340 -92z m-2542 -705 c83 -51 152 -96 152 -100 0 -13 -48 -40 -69 -40 -11
0 -31 5 -44 11 -22 10 -145 137 -215 221 l-27 33 25 -16 c14 -9 94 -58 178
-109z m1864 -3229 c-17 -36 -17 -35 -19 114 -7 431 -33 2843 -32 2920 1 50 17
-605 35 -1454 31 -1459 32 -1546 16 -1580z m3037 2894 c85 -9 137 -19 143 -27
22 -33 67 -127 76 -160 7 -26 7 -72 0 -147 l-10 -109 29 -43 c47 -68 73 -125
79 -172 6 -40 4 -46 -26 -70 -24 -20 -42 -27 -75 -27 -51 0 -38 -30 -105 240
l-41 165 -117 175 c-64 96 -118 178 -120 183 -5 10 11 9 167 -8z m-2082 -1847
c6 -7 13 -36 16 -64 l6 -52 -117 -6 c-64 -3 -166 -9 -227 -12 l-110 -6 84 66
c75 58 89 66 130 67 25 1 60 5 76 9 49 13 132 11 142 -2z m-2009 -69 l84 -12
-6 -276 c-4 -152 -9 -348 -12 -437 l-6 -160 -126 18 c-70 10 -244 47 -387 83
-372 92 -465 108 -670 109 -149 1 -186 -3 -301 -27 -332 -69 -629 -197 -826
-356 -123 -99 -232 -242 -341 -446 l-58 -110 5 165 c3 91 9 184 12 208 l7 42
83 0 c83 0 84 0 84 25 0 24 -2 25 -76 25 -73 0 -75 1 -69 23 4 12 23 39 43 60
36 37 37 37 114 37 77 0 78 0 78 25 0 24 -2 25 -64 25 l-64 0 32 76 c29 73 36
81 121 149 65 52 103 91 135 141 45 68 45 68 48 36 3 -26 8 -32 28 -32 22 0
24 4 24 49 0 39 -4 50 -17 53 -12 3 9 22 67 61 l85 57 5 -42 c4 -35 9 -43 25
-43 18 0 20 7 21 60 l1 59 109 73 c60 40 116 73 124 73 13 0 13 -2 1 -9 -12
-8 -13 -18 -2 -66 11 -50 15 -55 34 -49 12 3 23 7 24 8 1 1 -4 27 -11 58 l-13
57 66 6 c36 3 83 8 104 10 32 5 37 3 37 -15 0 -15 7 -20 25 -20 19 0 25 5 25
23 0 14 22 44 60 82 l61 60 167 7 c92 3 179 9 195 13 26 7 27 6 27 -29 0 -32
3 -36 25 -36 23 0 25 4 25 44 l0 43 60 13 c49 10 74 10 136 0 41 -7 71 -16 66
-19 -6 -3 -13 -23 -17 -45 -8 -38 2 -55 31 -56 17 0 28 81 12 92 -18 11 5 10
54 -1 21 -5 55 -5 75 -1 21 4 55 11 76 14 l37 7 -22 -46 c-19 -40 -20 -47 -8
-55 27 -17 35 -11 65 53 30 61 30 62 85 73 30 7 66 10 80 8 14 -2 62 -9 108
-15z m861 -1123 c95 -180 96 -180 184 3 l65 136 1 -196 c1 -108 4 -237 7 -287
l7 -92 -532 0 -531 0 6 268 c4 147 7 268 8 269 5 6 86 -110 86 -122 0 -8 6
-15 13 -15 6 0 22 -15 34 -33 40 -58 62 -46 159 81 47 62 88 112 92 112 4 0
36 -54 72 -120 57 -105 68 -120 91 -120 22 0 32 12 74 93 52 100 85 157 90
157 2 0 35 -60 74 -134z m264 -492 l37 -7 0 -63 0 -64 -570 0 -570 0 0 64 c0
63 1 65 28 69 44 7 1034 7 1075 1z m-997 -226 c-7 -24 -49 -157 -92 -295 l-79
-253 -127 0 -128 0 19 48 c11 26 64 152 120 281 114 267 107 259 228 260 l72
1 -13 -42z m281 -10 c-4 -29 -9 -162 -13 -295 l-7 -243 -188 0 c-104 0 -189 3
-189 8 0 4 38 128 85 277 47 148 85 275 85 281 0 7 -6 15 -12 17 -7 3 45 6
116 6 l128 1 -5 -52z m370 -203 c6 -137 12 -269 12 -292 l1 -43 -176 0 -177 0
7 253 c4 138 9 271 13 295 l5 43 152 -3 151 -3 12 -250z m327 -35 c64 -160
116 -292 116 -295 0 -3 -85 -5 -190 -5 l-190 0 -1 38 c0 20 -6 151 -12 290 -7
140 -10 256 -8 258 2 2 41 4 87 4 l82 0 116 -290z m106 277 c29 -13 40 -33
150 -293 l119 -279 -96 -3 c-53 -1 -100 1 -104 5 -4 4 -59 137 -122 296 l-115
287 68 0 c37 0 82 -6 100 -13z m437 -646 c67 -9 124 -19 126 -22 3 -2 14 -25
25 -51 l21 -48 -1229 0 -1228 0 21 50 c24 58 18 55 177 74 90 11 315 14 1040
14 816 0 939 -2 1047 -17z m820 -240 l118 -70 185 -6 185 -7 33 -31 c17 -17
32 -35 32 -39 0 -4 -1093 -8 -2430 -8 -1336 0 -2430 4 -2430 8 0 4 15 22 33
39 l32 31 187 7 186 7 109 66 c102 63 112 67 183 72 41 3 836 4 1767 3 l1692
-2 118 -70z"/>
<path d="M4653 7932 c-28 -4 -69 -46 -77 -77 -16 -65 54 -133 124 -119 41 9
80 56 80 99 0 59 -63 107 -127 97z"/>
<path d="M8930 11015 c0 -25 1 -25 80 -25 79 0 80 0 80 25 0 25 -1 25 -80 25
-79 0 -80 0 -80 -25z"/>
<path d="M8848 10933 c-55 -4 -58 -5 -58 -30 l0 -26 83 6 c45 4 94 7 110 7 22
0 27 4 27 25 0 27 -3 28 -162 18z"/>
<path d="M8700 10775 l0 -25 125 0 125 0 0 25 0 25 -125 0 -125 0 0 -25z"/>
<path d="M8630 10675 l0 -25 131 0 c130 0 130 0 127 23 -3 21 -7 22 -130 25
l-128 3 0 -26z"/>
<path d="M8540 10575 l0 -25 120 0 120 0 0 25 0 25 -120 0 -120 0 0 -25z"/>
<path d="M8515 10470 c-60 -10 -116 -19 -122 -19 -15 -1 -17 -20 -5 -39 7 -10
39 -8 156 10 137 20 147 23 144 42 -4 28 -35 29 -173 6z"/>
<path d="M8380 10358 c-74 -5 -136 -11 -138 -13 -2 -2 -1 -13 3 -26 7 -21 10
-21 104 -15 255 17 251 16 251 42 0 28 6 27 -220 12z"/>
<path d="M8425 10248 c-230 -11 -285 -16 -285 -31 1 -34 12 -35 245 -23 211
10 230 13 233 30 2 10 0 21 -5 25 -4 3 -89 3 -188 -1z"/>
<path d="M7940 10085 l0 -25 295 0 295 0 0 25 0 25 -295 0 -295 0 0 -25z"/>
<path d="M7900 9990 l0 -26 203 -18 c111 -9 221 -20 245 -23 40 -5 42 -5 42
21 0 14 -3 26 -7 26 -5 1 -115 11 -245 23 l-238 23 0 -26z"/>
<path d="M7415 8119 c-4 -11 -5 -22 -3 -23 1 -2 53 -13 113 -26 61 -12 115
-25 121 -27 6 -2 14 7 16 21 6 29 12 26 -124 55 -119 26 -115 26 -123 0z"/>
<path d="M7954 8010 c-95 -14 -122 -69 -52 -103 52 -25 168 -25 211 1 90 52
-21 124 -159 102z"/>
<path d="M8020 7755 l0 -25 103 0 102 0 84 -60 c46 -33 87 -60 90 -60 4 0 11
8 18 19 11 17 3 25 -70 77 -45 32 -90 58 -99 58 -10 0 -18 4 -18 8 0 4 -47 8
-105 8 l-105 0 0 -25z"/>
<path d="M8730 7625 c0 -94 1 -96 23 -93 21 3 22 7 22 93 0 86 -1 90 -22 93
-22 3 -23 1 -23 -93z"/>
<path d="M8530 7415 c0 -25 1 -25 90 -25 89 0 90 0 90 25 0 25 -1 25 -90 25
-89 0 -90 0 -90 -25z"/>
<path d="M9137 7263 c-21 -5 -17 -22 20 -98 31 -62 28 -59 51 -46 20 11 20 12
-11 81 -17 38 -33 69 -36 69 -3 -1 -14 -3 -24 -6z"/>
<path d="M8990 7190 c0 -68 1 -70 25 -70 24 0 25 2 25 70 0 68 -1 70 -25 70
-24 0 -25 -2 -25 -70z"/>
<path d="M8770 7234 c0 -8 5 -35 11 -60 8 -32 16 -44 30 -44 27 0 30 13 17 69
-10 43 -15 51 -35 51 -14 0 -23 -6 -23 -16z"/>
<path d="M8843 6937 l-22 -12 31 -68 c31 -66 40 -75 66 -59 9 7 5 25 -20 80
-31 67 -34 70 -55 59z"/>
<path d="M9086 6937 c-17 -13 -16 -18 19 -100 36 -85 46 -95 73 -79 10 7 5 28
-23 93 -43 99 -46 103 -69 86z"/>
<path d="M8626 6878 c6 -49 34 -305 34 -318 0 -5 11 -10 25 -10 30 0 30 -9 7
200 l-17 155 -27 3 c-25 3 -27 1 -22 -30z"/>
<path d="M9313 6882 c-10 -6 -4 -30 23 -98 20 -49 39 -92 43 -97 4 -4 15 -1
25 6 17 12 15 18 -19 105 -36 89 -46 101 -72 84z"/>
<path d="M8860 6620 c0 -68 1 -70 25 -70 24 0 25 2 25 70 0 68 -1 70 -25 70
-24 0 -25 -2 -25 -70z"/>
<path d="M9090 6505 c0 -95 0 -95 25 -95 25 0 25 0 25 95 0 95 0 95 -25 95
-25 0 -25 0 -25 -95z"/>
<path d="M9320 6495 c0 -63 1 -65 25 -65 24 0 25 2 25 65 0 63 -1 65 -25 65
-24 0 -25 -2 -25 -65z"/>
<path d="M9440 6485 c0 -73 1 -75 25 -75 24 0 25 2 25 75 0 73 -1 75 -25 75
-24 0 -25 -2 -25 -75z"/>
<path d="M8800 6401 c0 -32 -3 -79 -6 -105 -6 -44 -6 -46 18 -46 22 0 26 6 32
38 3 20 6 67 6 105 0 65 -1 67 -25 67 -24 0 -25 -3 -25 -59z"/>
<path d="M8584 6338 c-34 -68 -35 -72 -18 -85 10 -7 20 -13 24 -13 3 0 23 34
43 77 30 59 35 78 25 84 -27 17 -39 7 -74 -63z"/>
<path d="M9250 6214 c0 -124 0 -125 23 -122 21 3 22 7 25 126 l3 122 -26 0
-25 0 0 -126z"/>
<path d="M9032 6258 c-5 -7 -22 -37 -37 -67 -24 -49 -25 -55 -11 -69 19 -20
23 -16 67 66 29 53 32 64 19 72 -20 13 -26 12 -38 -2z"/>
<path d="M9426 6188 c-3 -13 -7 -44 -8 -70 -3 -46 -2 -48 24 -48 27 0 28 2 28
48 0 26 3 57 6 70 5 19 2 22 -20 22 -18 0 -27 -6 -30 -22z"/>
<path d="M8656 6063 c-13 -37 -13 -48 -4 -55 25 -15 36 -7 52 38 17 51 14 64
-14 64 -13 0 -23 -14 -34 -47z"/>
<path d="M8885 5999 c-37 -57 -38 -63 -16 -76 17 -11 23 -7 51 38 26 40 30 52
20 64 -19 23 -27 19 -55 -26z"/>
<path d="M9151 5977 c-15 -42 -44 -157 -40 -161 2 -2 12 -6 23 -8 15 -2 22 10
42 77 29 98 29 101 3 108 -14 4 -22 -1 -28 -16z"/>
<path d="M9311 5873 c-10 -54 -10 -68 1 -74 27 -18 36 -7 47 54 15 85 14 87
-12 87 -21 0 -25 -7 -36 -67z"/>
<path d="M8360 5895 c-52 -23 -62 -37 -40 -59 7 -7 108 25 128 40 6 4 -18 44
-26 43 -4 0 -32 -11 -62 -24z"/>
<path d="M8519 5789 c-49 -66 -51 -71 -35 -87 16 -16 19 -15 47 18 65 76 82
109 69 125 -7 8 -16 15 -20 15 -5 0 -32 -32 -61 -71z"/>
<path d="M8776 5768 c-71 -100 -73 -104 -48 -117 18 -10 27 -2 81 74 34 47 61
90 61 95 0 5 -8 14 -18 19 -16 8 -27 -2 -76 -71z"/>
<path d="M8970 5608 c-41 -77 -42 -82 -25 -95 23 -16 23 -16 74 79 41 74 41
77 22 87 -11 6 -21 11 -23 11 -2 0 -24 -37 -48 -82z"/>
<path d="M8297 5576 c-26 -21 -27 -26 -16 -44 l13 -21 36 26 c19 15 37 28 39
29 7 6 -21 34 -33 34 -6 -1 -24 -11 -39 -24z"/>
<path d="M9202 5583 c-29 -58 -54 -135 -46 -143 23 -22 36 -11 64 55 35 82 35
81 10 95 -15 8 -21 7 -28 -7z"/>
<path d="M8538 5476 c-53 -93 -55 -101 -31 -110 21 -8 23 -6 77 89 42 73 44
81 29 93 -9 6 -19 12 -22 12 -3 0 -27 -38 -53 -84z"/>
<path d="M8742 5357 c-51 -51 -92 -97 -92 -103 0 -7 6 -16 13 -22 10 -9 36 11
110 86 94 94 97 99 79 115 -17 16 -23 12 -110 -76z"/>
<path d="M8043 5414 c-49 -23 -51 -26 -41 -49 l11 -24 51 26 c63 31 59 27 51
52 -8 25 -7 25 -72 -5z"/>
<path d="M8277 5246 c-72 -79 -75 -84 -59 -100 17 -14 21 -12 68 37 105 111
108 115 94 132 -7 8 -16 15 -20 15 -4 0 -41 -38 -83 -84z"/>
<path d="M8895 5228 c-93 -89 -97 -94 -79 -109 18 -16 24 -12 117 75 95 89 97
93 79 109 -18 16 -23 13 -117 -75z"/>
<path d="M7812 5227 c-60 -61 -62 -64 -44 -80 17 -16 21 -13 82 48 54 55 61
66 50 79 -7 9 -15 16 -19 16 -4 0 -35 -28 -69 -63z"/>
<path d="M8401 5124 c-55 -60 -68 -80 -60 -91 20 -23 33 -15 101 61 64 71 66
74 49 90 -18 16 -22 13 -90 -60z"/>
<path d="M7400 5035 l-155 -82 -237 -8 -238 -8 0 -25 0 -25 238 6 237 7 165
84 c90 46 166 88 167 93 2 5 -2 16 -9 24 -11 14 -32 5 -168 -66z"/>
<path d="M8970 5024 c-77 -90 -81 -96 -64 -110 17 -13 23 -9 67 39 102 110
120 136 107 152 -7 8 -16 15 -20 15 -4 0 -44 -43 -90 -96z"/>
<path d="M7949 5034 c-76 -57 -85 -70 -58 -87 12 -7 30 2 80 38 35 27 68 52
73 56 4 4 2 17 -6 28 -14 20 -16 20 -89 -35z"/>
<path d="M8538 4923 c-76 -58 -85 -68 -75 -85 7 -10 15 -18 19 -18 5 0 141
103 172 131 9 8 -9 39 -23 39 -4 0 -46 -30 -93 -67z"/>
<path d="M8089 4879 c-105 -64 -107 -65 -87 -85 15 -15 23 -12 105 36 48 29
90 54 91 56 6 5 -9 44 -17 44 -4 0 -46 -23 -92 -51z"/>
<path d="M7470 4832 c-160 -34 -175 -39 -172 -57 2 -11 6 -22 8 -24 2 -2 89
13 194 34 179 35 191 39 188 59 -2 13 -11 22 -23 23 -11 1 -99 -15 -195 -35z"/>
<path d="M8661 4705 c-68 -46 -127 -87 -132 -92 -5 -5 -4 -17 4 -27 13 -17 23
-12 145 69 73 49 132 94 132 100 0 7 -6 17 -12 23 -10 7 -48 -14 -137 -73z"/>
<path d="M7039 4744 c-12 -14 -9 -20 16 -41 53 -42 63 -46 75 -22 7 11 10 22
8 23 -2 1 -19 15 -39 29 -42 32 -43 32 -60 11z"/>
<path d="M8208 4713 c-54 -19 -98 -40 -98 -47 1 -36 16 -36 123 2 92 31 107
40 105 57 -4 29 -23 28 -130 -12z"/>
<path d="M7560 4620 c-151 -16 -287 -29 -302 -29 -23 -1 -28 -6 -28 -26 0 -18
5 -25 19 -25 11 0 158 14 328 30 169 17 313 30 320 30 7 0 13 11 13 25 0 31
10 31 -350 -5z"/>
<path d="M8283 4543 c-71 -4 -73 -5 -73 -30 l0 -26 101 6 c55 3 102 7 104 9 2
2 2 14 -2 26 -4 16 -12 21 -32 20 -14 -1 -59 -4 -98 -5z"/>
<path d="M6676 4471 c-16 -18 -12 -23 94 -116 105 -92 112 -96 125 -79 16 20
5 33 -146 165 -54 47 -57 48 -73 30z"/>
<path d="M4224 5272 c-8 -5 -8 -18 0 -46 12 -42 23 -51 45 -37 12 8 13 16 2
50 -11 40 -24 49 -47 33z"/>
<path d="M4537 5144 c-4 -4 -7 -63 -7 -131 l0 -123 30 0 31 0 -3 128 c-3 119
-4 127 -23 130 -12 2 -24 0 -28 -4z"/>
<path d="M4730 5000 l0 -130 25 0 25 0 0 130 0 130 -25 0 -25 0 0 -130z"/>
<path d="M4980 4970 l0 -150 25 0 25 0 0 150 0 150 -25 0 -25 0 0 -150z"/>
<path d="M5160 5057 c0 -30 3 -95 6 -145 7 -90 8 -92 32 -92 l25 0 -6 107 c-4
58 -7 123 -7 145 0 34 -3 38 -25 38 -24 0 -25 -3 -25 -53z"/>
<path d="M4155 5078 c-6 -30 -35 -201 -35 -210 0 -5 11 -8 25 -8 26 0 23 -10
49 145 11 60 11 82 3 87 -21 14 -37 8 -42 -14z"/>
<path d="M4340 4985 c0 -95 0 -95 25 -95 25 0 25 0 25 95 0 95 0 95 -25 95
-25 0 -25 0 -25 -95z"/>
<path d="M3932 4928 c-23 -61 -28 -84 -19 -90 26 -17 37 -5 67 73 25 65 29 84
18 90 -26 17 -35 7 -66 -73z"/>
<path d="M3745 4853 c-31 -78 -35 -97 -24 -104 27 -17 34 -8 66 74 42 106 42
107 17 117 -19 8 -24 0 -59 -87z"/>
<path d="M3555 4789 c-6 -55 -4 -73 6 -80 23 -14 39 -10 39 10 0 10 3 46 6 80
7 60 7 61 -19 61 -24 0 -25 -3 -32 -71z"/>
<path d="M3383 4743 c-14 -5 -17 -55 -7 -115 6 -32 11 -38 31 -38 24 0 24 1
17 73 -8 91 -10 93 -41 80z"/>
<path d="M3220 4608 c0 -18 -3 -50 -6 -70 -6 -36 -5 -38 18 -38 28 0 38 27 38
101 0 35 -3 39 -25 39 -22 0 -25 -5 -25 -32z"/>
<path d="M3080 4445 c0 -73 1 -75 25 -75 24 0 25 2 25 75 0 73 -1 75 -25 75
-24 0 -25 -2 -25 -75z"/>
</g>
</svg>
